<svg viewBox="0 0 1071 929" fill="none" xmlns="http://www.w3.org/2000/svg"><path d="M535.3 515.1c119.1 0 291.7 38 403 75.3h.3L535.2 425.1 170 577c105.6-32.5 248.6-61.9 365.3-61.9z" fill="url(#paint0_linear)"/><path opacity=".5" d="M938.4 590.3h.3L535.2 425.1l.5 89.9c119.1.1 291.4 38.1 402.7 75.3z" fill="#2E3192"/><path d="M938.7 396.3L535.2 0 138 396.3l397.2-248.1 403.5 248.1z" fill="url(#paint1_linear)"/><path d="M938.7 503.9L535.2 232 138 503.9l397.2-151.1 403.5 151.1z" fill="url(#paint2_linear)"/><path opacity=".5" d="M535.2 148.2l403.5 248.1L535.2 0M535.2 352.8l403.5 151.1-403.5-273.6" fill="#2E3192"/><path d="M29.5 725.1v191.5H.6V725.1h28.9z" fill="url(#paint3_linear)"/><path d="M183.8 753.6l-23.4 13.9c-4.4-7.6-8.6-12.6-12.5-14.9-4.1-2.6-9.5-4-16-4-8 0-14.7 2.3-20 6.8-5.3 4.5-7.9 10.1-7.9 16.9 0 9.3 6.9 16.9 20.8 22.6l19.1 7.8c15.5 6.3 26.9 14 34.1 23 7.2 9.1 10.8 20.2 10.8 33.3 0 17.6-5.9 32.2-17.6 43.7-11.8 11.6-26.5 17.4-44 17.4-16.6 0-30.3-4.9-41.2-14.8-10.7-9.8-17.3-23.7-20-41.5l29.3-6.4c1.3 11.2 3.6 19 6.9 23.3 6 8.3 14.6 12.4 26 12.4 9 0 16.5-3 22.4-9.1 6-6 8.9-13.7 8.9-22.9 0-3.7-.5-7.1-1.5-10.2-1-3.1-2.6-6-4.8-8.6-2.2-2.6-5-5-8.5-7.3s-7.6-4.4-12.4-6.5l-18.5-7.7c-26.2-11.1-39.3-27.3-39.3-48.6 0-14.4 5.5-26.4 16.5-36.1 11-9.8 24.7-14.6 41-14.6 22.1-.2 39.4 10.6 51.8 32.1z" fill="url(#paint4_linear)"/><path d="M252.5 801.5l74.5-76.4h38.6L279 811.7l87.1 104.8h-38.7l-69-85.2-6 6v79.2h-28.9V725.1h28.9v76.4h.1z" fill="url(#paint5_linear)"/><path d="M504.3 870h-82L401 916.5h-31.1L464.7 713l91.4 203.5h-31.6L504.3 870zm-11.7-27.1l-28.4-65.1-29.8 65.1h58.2z" fill="url(#paint6_linear)"/><path d="M580 916.5V712l139.6 146.1v-133h28.9v203.1L608.9 782.5v134.1H580v-.1z" fill="url(#paint7_linear)"/><path d="M908.4 870h-82l-21.3 46.5H774L868.7 713l91.4 203.5h-31.6L908.4 870zm-11.8-27.1l-28.4-65.1-29.8 65.1h58.2z" fill="url(#paint8_linear)"/><path d="M1026.2 752.2v164.3h-28.9V752.2h-44V725h116.8v27.2h-43.9z" fill="url(#paint9_linear)"/><path d="M.1 673.8c428-179.8 664.4-173.1 1070.4 0-463.4-85.3-590-87-1070.4 0z" fill="#E6E6E6"/><defs><linearGradient id="paint0_linear" x1="170.03" y1="507.726" x2="938.7" y2="507.726" gradientUnits="userSpaceOnUse"><stop stop-color="#1867EF"/><stop offset="1" stop-color="#18AAEF"/></linearGradient><linearGradient id="paint1_linear" x1="137.996" y1="198.167" x2="938.7" y2="198.167" gradientUnits="userSpaceOnUse"><stop stop-color="#1867EF"/><stop offset="1" stop-color="#18AAEF"/></linearGradient><linearGradient id="paint2_linear" x1="137.996" y1="367.921" x2="938.7" y2="367.921" gradientUnits="userSpaceOnUse"><stop stop-color="#1867EF"/><stop offset="1" stop-color="#18AAEF"/></linearGradient><linearGradient id="paint3_linear" x1="6.869" y1="930.47" x2="17.702" y2="785.302" gradientUnits="userSpaceOnUse"><stop stop-color="#1867EF"/><stop offset="1" stop-color="#18AAEF"/></linearGradient><linearGradient id="paint4_linear" x1="121.655" y1="939.036" x2="132.488" y2="793.868" gradientUnits="userSpaceOnUse"><stop stop-color="#1867EF"/><stop offset="1" stop-color="#18AAEF"/></linearGradient><linearGradient id="paint5_linear" x1="285.09" y1="951.232" x2="295.923" y2="806.064" gradientUnits="userSpaceOnUse"><stop stop-color="#1867EF"/><stop offset="1" stop-color="#18AAEF"/></linearGradient><linearGradient id="paint6_linear" x1="459.423" y1="964.243" x2="470.257" y2="819.074" gradientUnits="userSpaceOnUse"><stop stop-color="#1867EF"/><stop offset="1" stop-color="#18AAEF"/></linearGradient><linearGradient id="paint7_linear" x1="652.424" y1="978.646" x2="663.257" y2="833.477" gradientUnits="userSpaceOnUse"><stop stop-color="#1867EF"/><stop offset="1" stop-color="#18AAEF"/></linearGradient><linearGradient id="paint8_linear" x1="861.215" y1="994.227" x2="872.049" y2="849.059" gradientUnits="userSpaceOnUse"><stop stop-color="#1867EF"/><stop offset="1" stop-color="#18AAEF"/></linearGradient><linearGradient id="paint9_linear" x1="991.871" y1="1003.98" x2="1002.7" y2="858.809" gradientUnits="userSpaceOnUse"><stop stop-color="#1867EF"/><stop offset="1" stop-color="#18AAEF"/></linearGradient></defs></svg>